#!OML:ASF F:\VICON\USERDATA\INSTALL\rory3\rory3.ASF
:FULLY-SPECIFIED
:DEGREES
310
root 4.8606 16.7709 2.67897 8.7047 -16.7334 -1.50931
lowerback 1.71999 0.820448 0.282499
upperback -1.86337 1.08664 -0.618239
thorax -2.859 0.52883 -0.838229
lowerneck -11.7192 0.532885 -1.18034
upperneck 40.8477 0.78545 0.254777
head 16.7238 0.0688889 0.428845
rclavicle -8.94531e-016 1.63003e-014
rhumerus 5.46375 21.7986 -39.3757
rradius 109.686
rwrist -37.6055
rhand -4.41551 -40.1287
rfingers 7.12502
rthumb 21.3549 -68.972
lclavicle -8.94531e-016 1.63003e-014
lhumerus 14.4088 -8.4918 35.4922
lradius 95.1904
lwrist 60.9792
lhand -23.0697 -28.1593
lfingers 7.12502
lthumb 3.37583 1.79371
rfemur -54.7958 -2.02458 17.1215
rtibia 33.2903
rfoot 37.4033 -2.29807
rtoes 3.766
lfemur -28.3505 4.78486 -29.8914
ltibia 41.7874
lfoot -20.8912 7.88652
ltoes 15.6926
311
root 4.85576 16.7575 2.67872 8.62257 -16.817 -1.51561
lowerback 1.72096 0.8133 0.185219
upperback -1.70317 1.07426 -0.640887
thorax -2.6961 0.525384 -0.804706
lowerneck -11.9109 0.558536 -0.9702
upperneck 40.7804 0.843067 0.0642086
head 16.7376 0.0994208 0.316078
rclavicle -2.76808e-014 -1.07344e-014
rhumerus 5.23542 21.9883 -39.6176
rradius 109.647
rwrist -37.4901
rhand -4.13008 -40.3056
rfingers 7.12502
rthumb 21.629 -69.1176
lclavicle -2.76808e-014 -1.07344e-014
lhumerus 14.279 -8.63324 35.7352
lradius 95.182
lwrist 60.8741
lhand -23.0678 -27.8075
lfingers 7.12502
lthumb 3.37759 2.14548
rfemur -54.7968 -1.87137 17.247
rtibia 33.1843
rfoot 37.5124 -1.83096
rtoes 2.87712
lfemur -28.3925 5.01267 -29.8818
ltibia 41.9836
lfoot -20.9572 7.66978
ltoes 16.0665
312
root 4.8523 16.7507 2.66873 8.7028 -16.6849 -1.68227
lowerback 1.86835 0.757249 0.23992
upperback -1.72157 1.00215 -0.59443
thorax -2.79903 0.488409 -0.787304
lowerneck -11.9665 0.603027 -0.887745
upperneck 40.8255 0.912823 0.00207655
head 16.7773 0.131465 0.285523
rclavicle 1.83379e-014 1.19271e-015
rhumerus 5.0964 22.3074 -40.0201
rradius 109.328
rwrist -37.0936
rhand -4.01041 -40.8572
rfingers 7.12502
rthumb 21.744 -69.656
lclavicle 1.83379e-014 1.19271e-015
lhumerus 14.111 -8.95394 36.031
lradius 95.1844
lwrist 60.8623
lhand -23.2409 -27.3015
lfingers 7.12502
lthumb 3.21047 2.65409
rfemur -54.8631 -1.76618 17.4558
rtibia 33.0885
rfoot 37.6122 -1.72852
rtoes 3.23832
lfemur -28.6105 5.07182 -29.6769
ltibia 42.1867
lfoot -20.8951 7.41884
ltoes 16.5934
313
root 4.8521 16.7505 2.66093 8.75453 -16.5223 -1.83072
lowerback 2.11775 0.695128 0.320306
upperback -1.84634 0.922792 -0.549172
thorax -3.0689 0.446311 -0.787368
lowerneck -11.858 0.656935 -0.908711
upperneck 40.9292 0.969827 0.0737772
head 16.8057 0.15975 0.330665
rclavicle -6.32632e-014 -2.38542e-015
rhumerus 4.83177 22.8083 -40.4918
rradius 109.032
rwrist -36.5932
rhand -4.18248 -41.0362
rfingers 7.12502
rthumb 21.5787 -69.854
lclavicle -6.32632e-014 -2.38542e-015
lhumerus 13.7689 -9.42561 36.3767
lradius 95.2234
lwrist 60.8116
lhand -23.4442 -26.6149
lfingers 7.12502
lthumb 3.01409 3.34357
rfemur -54.8491 -1.80919 17.6809
rtibia 33.0353
rfoot 37.4614 -1.71721
rtoes 3.49881
lfemur -28.7519 5.07809 -29.5068
ltibia 42.3772
lfoot -20.9159 7.35835
ltoes 16.5434
314
root 4.85385 16.7442 2.66088 8.62556 -16.4738 -1.78398
lowerback 2.25329 0.674807 0.300868
upperback -1.80706 0.893941 -0.592817
thorax -3.10492 0.431803 -0.82152
lowerneck -11.9618 0.615721 -1.03169
upperneck 41.0411 0.876631 0.238528
head 16.8928 0.122856 0.411665
rclavicle -1.25234e-014 -2.78299e-015
rhumerus 4.55419 23.1341 -40.8889
rradius 108.855
rwrist -36.2219
rhand -4.2944 -40.6457
rfingers 7.12502
rthumb 21.4712 -69.4758
lclavicle -1.25234e-014 -2.78299e-015
lhumerus 13.4343 -9.79053 36.7401
lradius 95.1982
lwrist 60.7391
lhand -23.3783 -26.5522
lfingers 7.12502
lthumb 3.07773 3.40532
rfemur -54.7956 -2.00182 17.864
rtibia 33.0289
rfoot 37.3057 -0.867005
rtoes 2.4085
lfemur -28.6879 5.17027 -29.564
ltibia 42.5277
lfoot -21.0192 7.32677
ltoes 16.4463
315
root 4.85331 16.7364 2.65499 8.53418 -16.4354 -1.80387
lowerback 2.28288 0.657202 0.3116
upperback -1.65983 0.870462 -0.626222
thorax -2.96953 0.420434 -0.859745
lowerneck -12.1763 0.549262 -1.07512
upperneck 41.092 0.790472 0.240016
head 16.9771 0.0797173 0.406507
rclavicle -5.61567e-015 -9.14409e-015
rhumerus 4.62843 23.2715 -41.22
rradius 108.587
rwrist -36.0409
rhand -4.10343 -40.8161
rfingers 7.12502
rthumb 21.6546 -69.6251
lclavicle -5.61567e-015 -9.14409e-015
lhumerus 13.0978 -9.98271 37.0574
lradius 95.2884
lwrist 60.6002
lhand -23.1381 -26.2807
lfingers 7.12502
lthumb 3.30978 3.67335
rfemur -54.7841 -2.00903 17.9957
rtibia 33.0308
rfoot 37.3407 -1.29434
rtoes 3.5118
lfemur -28.6905 5.26075 -29.5312
ltibia 42.6675
lfoot -21.1046 7.22284
ltoes 15.7352
316
root 4.8521 16.732 2.65177 8.54444 -16.4186 -1.79766
lowerback 2.219 0.637093 0.276619
upperback -1.59518 0.841724 -0.659003
thorax -2.86741 0.40703 -0.870978
lowerneck -12.1281 0.582038 -1.00607
upperneck 41.0737 0.861794 0.136652
head 16.9551 0.105401 0.359316
rclavicle 3.50855e-014 1.66979e-014
rhumerus 4.66366 23.4755 -41.5617
rradius 108.28
rwrist -35.9227
rhand -4.05974 -40.9965
rfingers 7.12502
rthumb 21.6966 -69.8007
lclavicle 3.50855e-014 1.66979e-014
lhumerus 12.7012 -10.1952 37.3902
lradius 95.51
lwrist 60.4094
lhand -22.9537 -25.6518
lfingers 7.12502
lthumb 3.48782 4.29937
rfemur -54.8411 -1.94266 18.0279
rtibia 33.0065
rfoot 37.287 -2.04413
rtoes 4.76164
lfemur -28.7964 5.29177 -29.5387
ltibia 42.8111
lfoot -21.1959 7.20291
ltoes 13.9354
317
root 4.85004 16.721 2.64945 8.51798 -16.4415 -1.64567
lowerback 2.20269 0.648031 0.116479
upperback -1.57581 0.84847 -0.745909
thorax -2.83917 0.412779 -0.870386
lowerneck -11.9849 0.602678 -0.982461
upperneck 41.0365 0.879567 0.148367
head 16.8974 0.118377 0.362503
rclavicle -2.44008e-014 -6.36111e-015
rhumerus 4.32812 23.682 -41.9341
rradius 108.188
rwrist -35.7905
rhand -4.18826 -40.9655
rfingers 7.12502
rthumb 21.5732 -69.7839
lclavicle -2.44008e-014 -6.36111e-015
lhumerus 12.5298 -10.474 37.7826
lradius 95.5827
lwrist 60.2879
lhand -22.9721 -25.9212
lfingers 7.12502
lthumb 3.47006 4.03029
rfemur -54.9658 -1.90109 17.9967
rtibia 32.9592
rfoot 37.294 -0.943254
rtoes 2.5026
lfemur -28.8916 5.3163 -29.71
ltibia 42.9464
lfoot -21.2344 7.23732
ltoes 12.8566
318
root 4.84664 16.7075 2.64364 8.49621 -16.4363 -1.60554
lowerback 2.23358 0.657129 0.0447073
upperback -1.52144 0.85668 -0.808259
thorax -2.80057 0.417859 -0.894482
lowerneck -11.9995 0.551369 -0.987198
upperneck 40.9937 0.790644 0.17721
head 16.8778 0.085337 0.360926
rclavicle -1.00386e-014 1.51076e-014
rhumerus 3.90114 23.81 -42.386
rradius 108.21
rwrist -35.571
rhand -4.18105 -41.1053
rfingers 7.12502
rthumb 21.5801 -69.9229
lclavicle -1.00386e-014 1.51076e-014
lhumerus 12.4594 -10.7148 38.1277
lradius 95.555
lwrist 60.125
lhand -23.0883 -26.3556
lfingers 7.12502
lthumb 3.35782 3.59772
rfemur -55.035 -1.79899 18.0527
rtibia 32.8652
rfoot 37.5421 -0.140266
rtoes 1.33684
lfemur -28.9595 5.36561 -29.7518
ltibia 43.0336
lfoot -21.2138 7.23805
ltoes 12.7498
319
root 4.84759 16.7084 2.6455 8.5291 -16.3597 -1.67393
lowerback 2.11642 0.629206 0.118824
upperback -1.45615 0.822563 -0.816791
thorax -2.66674 0.399941 -0.941037
lowerneck -11.9849 0.490504 -1.09071
upperneck 40.9212 0.696781 0.25257
head 16.8335 0.0413977 0.39696
rclavicle 3.55328e-014 -1.19271e-014
rhumerus 3.60797 23.9992 -42.7937
rradius 108.12
rwrist -35.3995
rhand -4.22865 -41.118
rfingers 7.12502
rthumb 21.5344 -69.9408
lclavicle 3.55328e-014 -1.19271e-014
lhumerus 12.2222 -10.973 38.4371
lradius 95.4923
lwrist 59.975
lhand -23.0842 -26.4102
lfingers 7.12502
lthumb 3.36179 3.54305
rfemur -54.9863 -1.82095 18.1647
rtibia 32.7602
rfoot 37.6893 -1.44807
rtoes 4.36214
lfemur -28.9811 5.37814 -29.6885
ltibia 43.0739
lfoot -21.2465 7.22464
ltoes 13.3645
320
root 4.85149 16.7213 2.6447 8.53059 -16.2262 -1.73608
lowerback 2.00485 0.570227 0.226859
upperback -1.35251 0.748224 -0.818604
thorax -2.49718 0.361794 -0.997965
lowerneck -12.0859 0.498441 -1.12771
upperneck 40.9591 0.705712 0.29185
head 16.8798 0.0439055 0.423332
rclavicle 9.34288e-015 -7.95139e-016
rhumerus 3.51213 24.2214 -43.1085
rradius 107.938
rwrist -35.3257
rhand -4.31175 -40.9547
rfingers 7.12502
rthumb 21.4546 -69.7867
lclavicle 9.34288e-015 -7.95139e-016
lhumerus 11.9913 -11.1977 38.7682
lradius 95.3757
lwrist 59.8918
lhand -23.0444 -26.4224
lfingers 7.12502
lthumb 3.40022 3.53021
rfemur -54.8709 -1.92597 18.2764
rtibia 32.6577
rfoot 37.5783 -3.00853
rtoes 7.42628
lfemur -28.9544 5.34654 -29.6231
ltibia 43.1183
lfoot -21.3069 7.19706
ltoes 13.8455
321
root 4.85002 16.7171 2.64034 8.46904 -16.145 -1.68354
lowerback 1.97621 0.51237 0.167698
upperback -1.2655 0.669193 -0.844048
thorax -2.39345 0.323722 -0.986677
lowerneck -12.242 0.570887 -1.03093
upperneck 41.132 0.800322 0.264112
head 17.0163 0.0913035 0.41092
rclavicle -2.21645e-014 -4.77083e-015
rhumerus 3.43466 24.4719 -43.4295
rradius 107.807
rwrist -35.3195
rhand -4.28048 -40.9179
rfingers 7.12502
rthumb 21.4846 -69.7464
lclavicle -2.21645e-014 -4.77083e-015
lhumerus 11.5988 -11.4278 39.1625
lradius 95.3898
lwrist 59.747
lhand -23.1304 -26.7545
lfingers 7.12502
lthumb 3.31722 3.19942
rfemur -54.8669 -2.0122 18.3698
rtibia 32.5912
rfoot 37.8712 -2.72329
rtoes 8.08961
lfemur -28.9476 5.31011 -29.6602
ltibia 43.2191
lfoot -21.3778 7.21617
ltoes 11.8113
322
root 4.8437 16.6983 2.63456 8.44162 -16.1556 -1.63999
lowerback 2.04731 0.513005 0.0353637
upperback -1.31433 0.665327 -0.844223
thorax -2.48521 0.323578 -0.913675
lowerneck -11.9858 0.581121 -1.07005
upperneck 41.1487 0.804535 0.305346
head 16.959 0.0918629 0.435865
rclavicle -5.69021e-014 2.0276e-014
rhumerus 3.09134 24.82 -43.7729
rradius 107.752
rwrist -35.5203
rhand -4.58526 -40.7375
rfingers 7.12502
rthumb 21.1919 -69.5992
lclavicle -5.69021e-014 2.0276e-014
lhumerus 11.0728 -11.8479 39.6926
lradius 95.506
lwrist 59.583
lhand -23.0286 -26.3634
lfingers 7.12502
lthumb 3.41548 3.58899
rfemur -54.9914 -1.93948 18.4723
rtibia 32.5572
rfoot 37.573 -1.92635
rtoes 4.94523
lfemur -29.0698 5.32234 -29.6865
ltibia 43.4107
lfoot -21.4468 7.27833
ltoes 13.4177
323
root 4.83886 16.6863 2.62229 8.51996 -16.1344 -1.7463
lowerback 2.24174 0.532498 0.0456433
upperback -1.44179 0.690992 -0.804114
thorax -2.72576 0.335623 -0.882583
lowerneck -11.4586 0.558133 -1.11869
upperneck 40.8963 0.795696 0.254308
head 16.6845 0.076991 0.416541
rclavicle 3.37934e-015 -2.38542e-015
rhumerus 2.64274 25.2004 -44.1159
rradius 107.723
rwrist -35.8067
rhand -5.02863 -39.488
rfingers 7.12502
rthumb 20.7659 -68.3968
lclavicle 3.37934e-015 -2.38542e-015
lhumerus 10.7774 -12.3151 40.2337
lradius 95.4863
lwrist 59.4561
lhand -22.6289 -25.3509
lfingers 7.12502
lthumb 3.80151 4.59492
rfemur -55.1362 -1.73069 18.5948
rtibia 32.5658
rfoot 38.4012 -2.09845
rtoes 6.83555
lfemur -29.3193 5.28126 -29.5521
ltibia 43.6459
lfoot -21.4618 7.32426
ltoes 12.664
